<svg width="41" height="41" viewBox="0 0 41 41" fill="none" xmlns="http://www.w3.org/2000/svg">
<path fill-rule="evenodd" clip-rule="evenodd" d="M0.370117 20.4427C0.370117 30.4368 7.63852 38.7147 17.2288 40.4308L17.348 40.3333C17.3417 40.3322 17.3354 40.331 17.3291 40.3299V26.0959H12.2816V20.4427H17.3291V16.0009C17.3291 10.9534 20.5595 8.1268 25.2032 8.1268C26.6165 8.1268 28.2317 8.3287 29.645 8.5306V13.6791H27.0203C24.5975 13.6791 23.9918 14.8905 23.9918 16.5057V20.4427H29.3421L28.4336 26.0959H23.9918V40.3299C23.9305 40.341 23.8691 40.3519 23.8078 40.3624L23.8915 40.4308C33.4817 38.7147 40.7501 30.4368 40.7501 20.4427C40.7501 9.33822 31.6646 0.252716 20.5601 0.252716C9.45562 0.252716 0.370117 9.33822 0.370117 20.4427Z" fill="url(#paint0_linear_100_596)"/>
<defs>
<linearGradient id="paint0_linear_100_596" x1="20.5601" y1="0.252716" x2="20.5601" y2="40.4308" gradientUnits="userSpaceOnUse">
<stop stop-color="#F8F8F8" stop-opacity="0.9"/>
<stop offset="1" stop-color="#F8F8F8" stop-opacity="0.3"/>
</linearGradient>
</defs>
</svg>
