<svg width="42" height="41" viewBox="0 0 42 41" fill="none" xmlns="http://www.w3.org/2000/svg">
<path d="M12.6456 0.679565C10.5007 0.780334 9.03663 1.12295 7.75686 1.62536C6.43246 2.14216 5.30961 2.83459 4.19107 3.956C3.07397 5.07742 2.38586 6.20172 1.87338 7.52755C1.37673 8.8102 1.04131 10.2757 0.946298 12.4221C0.851287 14.567 0.831134 15.258 0.841211 20.7298C0.851288 26.2015 0.87576 26.8882 0.979408 29.0389C1.08162 31.1824 1.42279 32.6464 1.9252 33.9277C2.442 35.252 3.13443 36.3749 4.25585 37.4934C5.37727 38.6105 6.50012 39.2972 7.83028 39.8111C9.11148 40.3063 10.5784 40.6446 12.7233 40.7382C14.8683 40.8318 15.5593 40.8534 21.031 40.8433C26.5028 40.8332 27.1909 40.8088 29.3416 40.7065C31.4923 40.6043 32.9477 40.2617 34.2289 39.7608C35.5533 39.2425 36.6776 38.5515 37.7947 37.4287C38.9118 36.3058 39.5999 35.1815 40.111 33.8542C40.6076 32.573 40.9445 31.1061 41.0381 28.9626C41.1316 26.8119 41.1547 26.1252 41.1431 20.652C41.1316 15.1788 41.1086 14.4936 41.0064 12.3443C40.9042 10.1951 40.563 8.73534 40.0606 7.45414C39.5424 6.12974 38.8514 5.00688 37.7299 3.88835C36.6085 2.76981 35.4828 2.08314 34.1555 1.57209C32.8729 1.07544 31.4074 0.737147 29.2625 0.645015C27.1175 0.552883 26.4265 0.528411 20.9533 0.538488C15.4801 0.548565 14.7949 0.573037 12.6456 0.676686M12.8817 37.1105C10.9167 37.0256 9.84998 36.6988 9.13884 36.4253C8.19736 36.0625 7.52653 35.6235 6.81826 34.9224C6.11 34.2213 5.67381 33.5476 5.30673 32.6076C5.03033 31.8964 4.69779 30.8312 4.60566 28.8662C4.50633 26.7428 4.48474 26.1051 4.47322 20.724C4.46171 15.3429 4.48186 14.7066 4.57543 12.5819C4.65893 10.6183 4.98714 9.55014 5.26066 8.83899C5.62343 7.89608 6.06106 7.22669 6.76356 6.51842C7.46607 5.81016 8.13834 5.37397 9.07837 5.00688C9.78808 4.72905 10.8548 4.39939 12.8184 4.30582C14.9431 4.20505 15.5809 4.18489 20.9605 4.17338C26.3401 4.16186 26.9793 4.18202 29.1055 4.27559C31.0691 4.36052 32.1373 4.68586 32.847 4.96082C33.7884 5.32359 34.4593 5.75977 35.1675 6.46372C35.8758 7.16766 36.312 7.83706 36.6805 8.77997C36.9583 9.48823 37.288 10.5535 37.3801 12.5185C37.4809 14.6433 37.5039 15.281 37.514 20.6607C37.5241 26.0403 37.5054 26.6795 37.4118 28.8028C37.3254 30.7678 37.0001 31.8345 36.7266 32.5471C36.3638 33.4886 35.9262 34.1594 35.2222 34.8677C34.5183 35.576 33.8475 36.0121 32.9074 36.3792C32.1977 36.6556 31.131 36.9867 29.1689 37.0803C27.0441 37.1796 26.4064 37.2012 21.0253 37.2127C15.6442 37.2242 15.0065 37.2027 12.8817 37.1105ZM29.3114 9.9201C29.3143 11.256 30.3983 12.3371 31.7342 12.3342C33.0701 12.3314 34.1512 11.2474 34.1483 9.91146C34.1454 8.57555 33.0615 7.49444 31.7255 7.49732C30.3896 7.5002 29.31 8.58419 29.3114 9.9201ZM10.6446 20.7111C10.6561 26.4261 15.2973 31.05 21.0123 31.0385C26.7274 31.0269 31.3527 26.3858 31.3426 20.6707C31.3311 14.9557 26.6885 10.3304 20.9735 10.3419C15.2584 10.3534 10.6331 14.996 10.6446 20.7111ZM14.2766 20.7038C14.2694 16.9941 17.2709 13.9797 20.9821 13.9725C24.6918 13.9653 27.7063 16.9668 27.7135 20.6779C27.7207 24.3877 24.7192 27.4021 21.008 27.4093C17.2983 27.4165 14.2838 24.4165 14.2766 20.7067" fill="url(#paint0_linear_100_603)"/>
<defs>
<linearGradient id="paint0_linear_100_603" x1="20.9924" y1="0.536377" x2="20.9924" y2="40.8456" gradientUnits="userSpaceOnUse">
<stop stop-color="#F8F8F8" stop-opacity="0.9"/>
<stop offset="1" stop-color="#F8F8F8" stop-opacity="0.3"/>
</linearGradient>
</defs>
</svg>
