<svg width="410" height="376" viewBox="0 0 410 376" fill="none" xmlns="http://www.w3.org/2000/svg">
<g clip-path="url(#clip0_95_13267)">
<mask id="mask0_95_13267" style="mask-type:alpha" maskUnits="userSpaceOnUse" x="0" y="0" width="410" height="376">
<rect width="410" height="376" fill="url(#paint0_radial_95_13267)"/>
</mask>
<g mask="url(#mask0_95_13267)">
<rect opacity="0.1" x="-30.25" y="20.75" width="62.5" height="62.5" rx="15.25" stroke="#F8F8F8" stroke-width="1.5"/>
<rect opacity="0.1" x="37.75" y="20.75" width="62.5" height="62.5" rx="15.25" stroke="#F8F8F8" stroke-width="1.5"/>
<rect opacity="0.1" x="105.75" y="20.75" width="198.5" height="62.5" rx="15.25" stroke="#F8F8F8" stroke-width="1.5"/>
<rect opacity="0.1" x="309.75" y="20.75" width="62.5" height="62.5" rx="15.25" stroke="#F8F8F8" stroke-width="1.5"/>
<rect opacity="0.1" x="377.75" y="20.75" width="62.5" height="62.5" rx="15.25" stroke="#F8F8F8" stroke-width="1.5"/>
<g filter="url(#filter0_di_95_13267)">
<g clip-path="url(#clip1_95_13267)">
<rect opacity="0.4" x="173.75" y="156.75" width="62.5" height="62.5" rx="15.25" stroke="#F8F8F8" stroke-width="1.5"/>
<path d="M184 180.232C184 180.102 184.101 180 184.229 180H189.804C190.692 180 191.514 180.118 192.266 180.354C193.018 180.59 193.665 180.975 194.208 181.51C194.751 182.045 195.177 182.741 195.484 183.594C195.794 184.447 195.945 185.501 195.945 186.755V189.044C195.945 190.282 195.79 191.328 195.484 192.182C195.173 193.035 194.751 193.735 194.208 194.277C193.665 194.82 193.018 195.209 192.266 195.445C191.514 195.681 190.692 195.799 189.804 195.799H184.229C184.101 195.799 184 195.697 184 195.567V180.228V180.232ZM190.99 192.382C191.3 192.205 191.545 191.961 191.723 191.651C191.905 191.336 192.029 190.959 192.095 190.518C192.161 190.074 192.196 189.586 192.196 189.052V186.763C192.196 186.228 192.161 185.741 192.095 185.296C192.029 184.852 191.901 184.475 191.723 184.164C191.545 183.853 191.296 183.606 190.99 183.433C190.68 183.256 190.285 183.169 189.804 183.169H187.978C187.85 183.169 187.749 183.271 187.749 183.401V192.421C187.749 192.551 187.85 192.653 187.978 192.653H189.804C190.285 192.653 190.68 192.567 190.99 192.39V192.382Z" fill="white"/>
<path d="M207.936 183.161H202.295C202.167 183.161 202.067 183.264 202.067 183.393V186.181C202.067 186.311 202.167 186.413 202.295 186.413H207.258C207.386 186.413 207.487 186.515 207.487 186.645V189.343C207.487 189.472 207.386 189.575 207.258 189.575H202.295C202.167 189.575 202.067 189.677 202.067 189.807V195.571C202.067 195.701 201.966 195.803 201.838 195.803H198.546C198.418 195.803 198.318 195.701 198.318 195.571V180.232C198.318 180.102 198.418 180 198.546 180H207.936C208.064 180 208.165 180.102 208.165 180.232V182.929C208.165 183.059 208.064 183.161 207.936 183.161Z" fill="white"/>
<path d="M222.01 180H225.142C225.27 180 225.371 180.102 225.371 180.232V195.571C225.371 195.701 225.27 195.803 225.142 195.803H222.075C221.948 195.803 221.847 195.701 221.847 195.571V187.829C221.847 187.585 221.525 187.506 221.416 187.723L218.706 193.066C218.668 193.145 218.59 193.192 218.505 193.192H216.776C216.69 193.192 216.609 193.145 216.57 193.066L213.926 187.801C213.818 187.585 213.492 187.664 213.492 187.907V195.571C213.492 195.701 213.391 195.803 213.263 195.803H210.197C210.069 195.803 209.968 195.701 209.968 195.571V180.232C209.968 180.102 210.069 180 210.197 180H213.31C213.395 180 213.473 180.047 213.511 180.122L217.466 187.632C217.551 187.797 217.784 187.797 217.869 187.632L221.804 180.122C221.843 180.047 221.92 180 222.006 180H222.01Z" fill="white"/>
</g>
</g>
<mask id="mask1_95_13267" style="mask-type:alpha" maskUnits="userSpaceOnUse" x="49" y="85" width="207" height="207">
<circle cx="152.5" cy="188.5" r="103.5" fill="#D9D9D9"/>
</mask>
<g mask="url(#mask1_95_13267)">
<rect x="-30.25" y="88.75" width="130.5" height="62.5" rx="15.25" stroke="#F8F8F8" stroke-width="1.5"/>
<rect x="-30.25" y="156.75" width="130.5" height="62.5" rx="15.25" stroke="#F8F8F8" stroke-width="1.5"/>
<rect x="-30.25" y="224.75" width="130.5" height="62.5" rx="15.25" stroke="#F8F8F8" stroke-width="1.5"/>
</g>
<mask id="mask2_95_13267" style="mask-type:alpha" maskUnits="userSpaceOnUse" x="154" y="85" width="207" height="207">
<circle cx="257.5" cy="188.5" r="103.5" fill="#D9D9D9"/>
</mask>
<g mask="url(#mask2_95_13267)">
<rect x="309.75" y="88.75" width="62.5" height="62.5" rx="15.25" stroke="#F8F8F8" stroke-width="1.5"/>
<rect x="309.75" y="156.75" width="62.5" height="62.5" rx="15.25" stroke="#F8F8F8" stroke-width="1.5"/>
<rect x="309.75" y="224.75" width="62.5" height="62.5" rx="15.25" stroke="#F8F8F8" stroke-width="1.5"/>
</g>
<rect opacity="0.1" x="-30.25" y="292.75" width="62.5" height="62.5" rx="15.25" stroke="#F8F8F8" stroke-width="1.5"/>
<rect opacity="0.1" x="37.75" y="292.75" width="62.5" height="62.5" rx="15.25" stroke="#F8F8F8" stroke-width="1.5"/>
<rect opacity="0.1" x="105.75" y="292.75" width="198.5" height="62.5" rx="15.25" stroke="#F8F8F8" stroke-width="1.5"/>
<rect opacity="0.1" x="309.75" y="292.75" width="62.5" height="62.5" rx="15.25" stroke="#F8F8F8" stroke-width="1.5"/>
<rect opacity="0.1" x="377.75" y="292.75" width="62.5" height="62.5" rx="15.25" stroke="#F8F8F8" stroke-width="1.5"/>
<g opacity="0.25">
<path d="M110 119.25C109.586 119.25 109.25 119.586 109.25 120C109.25 120.414 109.586 120.75 110 120.75V119.25ZM110 120.75H121.505V119.25H110V120.75ZM135.746 130.546L153.915 177.99L155.316 177.454L137.147 130.01L135.746 130.546ZM169.557 188.75H174V187.25H169.557V188.75ZM153.915 177.99C156.397 184.471 162.618 188.75 169.557 188.75V187.25C163.239 187.25 157.576 183.354 155.316 177.454L153.915 177.99ZM121.505 120.75C127.823 120.75 133.486 124.646 135.746 130.546L137.147 130.01C134.665 123.529 128.444 119.25 121.505 119.25V120.75Z" fill="#F8F8F8"/>
<path d="M110 258.75C109.586 258.75 109.25 258.414 109.25 258C109.25 257.586 109.586 257.25 110 257.25V258.75ZM136.387 247.579L135.684 247.317L136.387 247.579ZM110 257.25H121.391V258.75H110V257.25ZM135.684 247.317L153.972 198.16L155.378 198.683L137.09 247.84L135.684 247.317ZM169.671 187.25H174V188.75H169.671V187.25ZM153.972 198.16C156.412 191.601 162.673 187.25 169.671 187.25V188.75C163.299 188.75 157.599 192.711 155.378 198.683L153.972 198.16ZM121.391 257.25C127.763 257.25 133.463 253.289 135.684 247.317L137.09 247.84C134.65 254.399 128.39 258.75 121.391 258.75V257.25Z" fill="#F8F8F8"/>
<path d="M110 188H154" stroke="#F8F8F8" stroke-width="1.5" stroke-linecap="round"/>
</g>
<g opacity="0.25">
<path d="M300 119.25C300.414 119.25 300.75 119.586 300.75 120C300.75 120.414 300.414 120.75 300 120.75V119.25ZM300 120.75H288.495V119.25H300V120.75ZM274.254 130.546L256.085 177.99L254.684 177.454L272.853 130.01L274.254 130.546ZM240.443 188.75H236V187.25H240.443V188.75ZM256.085 177.99C253.603 184.471 247.382 188.75 240.443 188.75V187.25C246.761 187.25 252.424 183.354 254.684 177.454L256.085 177.99ZM288.495 120.75C282.177 120.75 276.514 124.646 274.254 130.546L272.853 130.01C275.335 123.529 281.556 119.25 288.495 119.25V120.75Z" fill="#F8F8F8"/>
<path d="M300 258.75C300.414 258.75 300.75 258.414 300.75 258C300.75 257.586 300.414 257.25 300 257.25V258.75ZM273.613 247.579L274.316 247.317L273.613 247.579ZM300 257.25H288.609V258.75H300V257.25ZM274.316 247.317L256.028 198.16L254.622 198.683L272.91 247.84L274.316 247.317ZM240.329 187.25H236V188.75H240.329V187.25ZM256.028 198.16C253.588 191.601 247.327 187.25 240.329 187.25V188.75C246.701 188.75 252.401 192.711 254.622 198.683L256.028 198.16ZM288.609 257.25C282.237 257.25 276.537 253.289 274.316 247.317L272.91 247.84C275.35 254.399 281.61 258.75 288.609 258.75V257.25Z" fill="#F8F8F8"/>
<path d="M300 188H256" stroke="#F8F8F8" stroke-width="1.5" stroke-linecap="round"/>
</g>
</g>
</g>
<defs>
<filter id="filter0_di_95_13267" x="165" y="156" width="80" height="104" filterUnits="userSpaceOnUse" color-interpolation-filters="sRGB">
<feFlood flood-opacity="0" result="BackgroundImageFix"/>
<feColorMatrix in="SourceAlpha" type="matrix" values="0 0 0 0 0 0 0 0 0 0 0 0 0 0 0 0 0 0 127 0" result="hardAlpha"/>
<feMorphology radius="16" operator="erode" in="SourceAlpha" result="effect1_dropShadow_95_13267"/>
<feOffset dy="32"/>
<feGaussianBlur stdDeviation="12"/>
<feComposite in2="hardAlpha" operator="out"/>
<feColorMatrix type="matrix" values="0 0 0 0 0 0 0 0 0 0 0 0 0 0 0 0 0 0 0.4 0"/>
<feBlend mode="multiply" in2="BackgroundImageFix" result="effect1_dropShadow_95_13267"/>
<feBlend mode="normal" in="SourceGraphic" in2="effect1_dropShadow_95_13267" result="shape"/>
<feColorMatrix in="SourceAlpha" type="matrix" values="0 0 0 0 0 0 0 0 0 0 0 0 0 0 0 0 0 0 127 0" result="hardAlpha"/>
<feOffset/>
<feGaussianBlur stdDeviation="4"/>
<feComposite in2="hardAlpha" operator="arithmetic" k2="-1" k3="1"/>
<feColorMatrix type="matrix" values="0 0 0 0 0.972549 0 0 0 0 0.972549 0 0 0 0 0.972549 0 0 0 0.25 0"/>
<feBlend mode="normal" in2="shape" result="effect2_innerShadow_95_13267"/>
</filter>
<radialGradient id="paint0_radial_95_13267" cx="0" cy="0" r="1" gradientUnits="userSpaceOnUse" gradientTransform="translate(205 188) rotate(90) scale(188 205)">
<stop stop-color="#D9D9D9"/>
<stop offset="1" stop-color="#737373" stop-opacity="0"/>
</radialGradient>
<clipPath id="clip0_95_13267">
<rect width="410" height="376" fill="white"/>
</clipPath>
<clipPath id="clip1_95_13267">
<rect x="173" y="156" width="64" height="64" rx="16" fill="white"/>
</clipPath>
</defs>
</svg>
