<svg width="160" height="45" viewBox="0 0 160 45" fill="none" xmlns="http://www.w3.org/2000/svg">
<g clip-path="url(#clip0_104_79)">
<path d="M40.0371 4.39683C44.3239 8.74454 44.3723 16.7553 44.3723 22.5C44.3723 28.2447 44.3723 36.105 40.0371 40.6032C35.7504 45.0553 27.8519 45 22.1877 45C16.5235 45 8.68256 45.0092 4.33827 40.6032C-0.00904452 36.1971 3.74629e-05 28.3676 3.74629e-05 22.5C3.74629e-05 16.7522 -0.0574828 8.74454 4.33524 4.39683C8.77035 0 16.3993 0 22.1847 0C27.8519 0 35.7473 0.0460561 40.0341 4.39683H40.0371Z" fill="#041478"/>
<path d="M6.03054 15.5578C6.03054 15.4565 6.10925 15.3766 6.20916 15.3766H10.5625C11.2558 15.3766 11.8976 15.4687 12.4849 15.653C13.0722 15.8372 13.5778 16.1381 14.0016 16.5557C14.4255 16.9732 14.7585 17.5167 14.9976 18.183C15.2398 18.8493 15.3579 19.6721 15.3579 20.6516V22.4386C15.3579 23.4058 15.2368 24.2225 14.9976 24.8888C14.7554 25.5551 14.4255 26.1016 14.0016 26.5253C13.5778 26.949 13.0722 27.253 12.4849 27.4372C11.8976 27.6214 11.2558 27.7136 10.5625 27.7136H6.20916C6.10925 27.7136 6.03054 27.6337 6.03054 27.5324V15.5547V15.5578ZM11.4889 25.0454C11.7311 24.9072 11.9218 24.7168 12.0611 24.4743C12.2034 24.2286 12.3002 23.9339 12.3517 23.59C12.4032 23.243 12.4304 22.8623 12.4304 22.4447V20.6577C12.4304 20.2402 12.4032 19.8594 12.3517 19.5125C12.3002 19.1655 12.2003 18.8708 12.0611 18.6282C11.9218 18.3856 11.7281 18.1922 11.4889 18.0571C11.2467 17.9189 10.9379 17.8514 10.5625 17.8514H9.13663C9.03673 17.8514 8.95802 17.9312 8.95802 18.0325V25.0761C8.95802 25.1774 9.03673 25.2572 9.13663 25.2572H10.5625C10.9379 25.2572 11.2467 25.1897 11.4889 25.0515V25.0454Z" fill="white"/>
<path d="M24.7216 17.8452H20.3167C20.2168 17.8452 20.1381 17.9251 20.1381 18.0264V20.2033C20.1381 20.3046 20.2168 20.3845 20.3167 20.3845H24.1918C24.2917 20.3845 24.3704 20.4643 24.3704 20.5656V22.6719C24.3704 22.7733 24.2917 22.8531 24.1918 22.8531H20.3167C20.2168 22.8531 20.1381 22.9329 20.1381 23.0342V27.5355C20.1381 27.6368 20.0594 27.7166 19.9595 27.7166H17.3893C17.2894 27.7166 17.2106 27.6368 17.2106 27.5355V15.5578C17.2106 15.4565 17.2894 15.3766 17.3893 15.3766H24.7216C24.8215 15.3766 24.9002 15.4565 24.9002 15.5578V17.6641C24.9002 17.7654 24.8215 17.8452 24.7216 17.8452Z" fill="white"/>
<path d="M35.711 15.3766H38.1571C38.257 15.3766 38.3357 15.4565 38.3357 15.5578V27.5355C38.3357 27.6368 38.257 27.7166 38.1571 27.7166H35.7624C35.6625 27.7166 35.5838 27.6368 35.5838 27.5355V21.4898C35.5838 21.2995 35.3325 21.2381 35.2478 21.4069L33.1316 25.5796C33.1014 25.641 33.0408 25.6779 32.9742 25.6779H31.624C31.5574 25.6779 31.4938 25.641 31.4635 25.5796L29.3989 21.4683C29.3141 21.2995 29.0598 21.3609 29.0598 21.5512V27.5355C29.0598 27.6368 28.9811 27.7166 28.8812 27.7166H26.4865C26.3866 27.7166 26.3079 27.6368 26.3079 27.5355V15.5578C26.3079 15.4565 26.3866 15.3766 26.4865 15.3766H28.9175C28.9841 15.3766 29.0447 15.4135 29.0749 15.4718L32.1629 21.3363C32.2295 21.4653 32.4111 21.4653 32.4777 21.3363L35.5505 15.4718C35.5808 15.4135 35.6413 15.3766 35.7079 15.3766H35.711Z" fill="white"/>
<path d="M54.405 20.059V10.8232H57.8139C59.6394 10.8232 61.3498 11.7628 61.3498 13.9151V17.0193C61.3498 19.144 59.6394 20.059 57.8139 20.059H54.405ZM57.8926 17.8667C58.5223 17.8667 59.0369 17.5136 59.0369 17.0193V13.9151C59.0369 13.4054 58.5223 13.0032 57.8926 13.0032H56.721V17.8698H57.8926V17.8667Z" fill="white"/>
<path d="M62.4306 10.8232H64.7314V20.059H62.4306V10.8232Z" fill="white"/>
<path d="M74.1102 20.059H71.2433L68.994 17.1237H68.5822V20.059H66.2542V10.8232H69.8931C71.7701 10.8232 73.2232 11.6983 73.2747 13.8629C73.2747 15.5731 72.5935 16.5373 71.4855 16.8904L74.1102 20.059ZM69.9294 15.1157C71.3826 15.1157 71.3826 13.0032 69.9294 13.0032H68.5792V15.1157H69.9294Z" fill="white"/>
<path d="M80.5525 13.0155H76.5412V14.3972H80.2316V16.4697H76.5412V17.8514H80.5525V20.056H74.2132V10.8079H80.5525V13.0124V13.0155Z" fill="white"/>
<path d="M88.13 18.1001C87.3701 19.6015 85.9957 20.1726 84.8514 20.1726C83.0622 20.1726 81.2639 19.1164 81.2639 17.0162V13.8721C81.2639 11.7842 83.0652 10.7157 84.8907 10.7157C86.0109 10.7157 87.3611 11.1978 88.0937 12.8405L86.2167 13.6111C85.5991 12.4628 83.5678 12.7238 83.5678 13.8721V17.0162C83.5678 18.1247 85.6264 18.4378 86.1259 17.1605L88.133 18.1001H88.13Z" fill="white"/>
<path d="M95.6288 10.8109V13.0278H93.1736V20.059H90.8456V13.0278H88.3904V10.8109H95.6319H95.6288Z" fill="white"/>
<path d="M105.416 13.0401H101.405V14.6981H104.917V16.875H101.405V20.059H99.077V10.8232H105.416V13.0401Z" fill="white"/>
<path d="M106.11 10.8232H108.41V20.059H106.11V10.8232Z" fill="white"/>
<path d="M112.092 20.059H109.791V10.8232H111.977L114.175 14.7626L114.947 16.614L115.049 16.6017C115.049 16.6017 114.768 15.0113 114.753 15.0113V10.8232H117.041V20.059H114.713L112.655 16.4206L111.859 14.5691L111.756 14.5814C111.756 14.5814 112.077 16.3684 112.089 16.3684V20.059H112.092Z" fill="white"/>
<path d="M120.644 10.8232H122.739L125.993 20.059H123.523L122.933 18.2076H120.502L119.936 20.059H117.465L120.641 10.8232H120.644ZM121.622 13.4331L121.016 16.132H122.379L121.788 13.4331H121.622Z" fill="white"/>
<path d="M128.658 20.059H126.357V10.8232H128.543L130.74 14.7626L131.512 16.614L131.615 16.6017C131.615 16.6017 131.334 15.0113 131.319 15.0113V10.8232H133.607V20.059H131.279L129.221 16.4206L128.424 14.5691L128.322 14.5814C128.322 14.5814 128.642 16.3684 128.655 16.3684V20.059H128.658Z" fill="white"/>
<path d="M141.633 18.1001C140.873 19.6015 139.499 20.1726 138.354 20.1726C136.565 20.1726 134.767 19.1164 134.767 17.0162V13.8721C134.767 11.7842 136.568 10.7157 138.394 10.7157C139.514 10.7157 140.864 11.1978 141.597 12.8405L139.72 13.6111C139.102 12.4628 137.071 12.7238 137.071 13.8721V17.0162C137.071 18.1247 139.129 18.4378 139.629 17.1605L141.636 18.1001H141.633Z" fill="white"/>
<path d="M142.42 10.8232H144.721V20.059H142.42V10.8232Z" fill="white"/>
<path d="M148.181 10.8232H150.276L153.53 20.059H151.06L150.47 18.2076H148.039L147.473 20.059H145.002L148.178 10.8232H148.181ZM149.159 13.4331L148.553 16.132H149.916L149.325 13.4331H149.159Z" fill="white"/>
<path d="M160 20.059H153.982V10.8232H156.298V17.7501H160V20.059Z" fill="white"/>
<path d="M86.6406 28.6961L86.2046 29.9857L84.9604 32.9425H83.5496L82.2902 29.9734L81.8543 28.7115H81.7271L81.933 30.4954V34.1553H80.0469V24.9379H82.0238L84.2308 30.2374L86.465 24.9379H88.4418V34.1553H86.5558V30.4831L86.7859 28.6992H86.6436L86.6406 28.6961Z" fill="white"/>
<path d="M92.0717 24.9318H93.882L97.1425 34.1491H95.1657L94.3695 32.0398H91.6599C91.3784 32.8197 91.1968 33.3293 90.9031 34.1491H88.8869L92.0717 24.9318ZM92.9072 26.9644L92.6499 28.2939L92.1352 30.2866H93.882L93.3038 28.2816L93.0465 26.9674H92.9042L92.9072 26.9644Z" fill="white"/>
<path d="M105.283 34.1522H102.961L100.382 30.7809H99.7128V34.1522H97.8116V24.9348H101.393C103.215 24.9348 104.59 25.7823 104.641 27.8763C104.641 29.5681 103.885 30.3879 102.574 30.6489L105.283 34.1522ZM101.393 29.0338C102.229 29.0338 102.755 28.6961 102.755 27.8886C102.755 27.0811 102.189 26.8324 101.393 26.86H99.7097V29.0338H101.393Z" fill="white"/>
<path d="M107.72 24.9318V28.7729L110.956 24.9318H113.254L109.352 29.4483L113.254 34.1491H110.917L108.08 30.7256L107.72 31.0787V34.1522H105.834V24.9348H107.72V24.9318Z" fill="white"/>
<path d="M119.878 26.7955H115.616V28.604H119.53V30.4647H115.616V32.2885H119.878V34.1492H113.717V24.9195H119.878V26.7955Z" fill="white"/>
<path d="M127.556 24.9195V26.8477H124.949V34.1522H123.048V26.8477H120.441V24.9195H127.553H127.556Z" fill="white"/>
<path d="M129.172 31.4165C129.993 32.746 132.381 32.7705 132.46 31.481C132.499 30.6857 131.652 30.5046 130.713 30.3756C129.287 30.1545 127.813 29.476 127.837 27.4464C127.94 25.7024 129.52 24.7905 131.149 24.7905C132.33 24.7905 133.459 25.2603 134.216 26.4178L132.663 27.471C132.278 26.8723 131.739 26.599 131.149 26.599C130.432 26.599 129.802 26.8723 129.763 27.5109V27.5232C129.775 28.2785 130.531 28.3829 131.328 28.5518C132.908 28.8527 134.446 29.4361 134.358 31.6099C134.204 33.3416 132.56 34.2781 130.904 34.2781C129.723 34.2781 128.515 33.6917 127.746 32.5218L129.172 31.4165Z" fill="white"/>
</g>
<defs>
<clipPath id="clip0_104_79">
<rect width="160" height="45" fill="white"/>
</clipPath>
</defs>
</svg>
