<svg width="27" height="26" viewBox="0 0 27 26" fill="none" xmlns="http://www.w3.org/2000/svg">
<path d="M8.40643 17.8517V8.01941" stroke="white" stroke-miterlimit="10"/>
<path d="M8.71613 7.73547H18.5742" stroke="white" stroke-miterlimit="10"/>
<path d="M18.8839 8.01941V17.8517" stroke="white" stroke-miterlimit="10"/>
<path d="M18.5742 18.1355H8.71613" stroke="white" stroke-miterlimit="10"/>
<path d="M13.5936 21.9032V18.1355" stroke="white" stroke-miterlimit="10"/>
<path d="M13.5936 7.65797V4.09668" stroke="white" stroke-miterlimit="10"/>
<path d="M13.5936 25.0001C14.4487 25.0001 15.1419 24.3069 15.1419 23.4517C15.1419 22.5966 14.4487 21.9033 13.5936 21.9033C12.7384 21.9033 12.0452 22.5966 12.0452 23.4517C12.0452 24.3069 12.7384 25.0001 13.5936 25.0001Z" stroke="white" stroke-miterlimit="10"/>
<path d="M18.9097 14.3677H23.2193" stroke="white" stroke-miterlimit="10"/>
<path d="M22.858 7.65808V10.1097L21.3613 11.6323H18.8839" stroke="white" stroke-miterlimit="10"/>
<path d="M24.7419 15.9161C25.597 15.9161 26.2903 15.2229 26.2903 14.3677C26.2903 13.5126 25.597 12.8193 24.7419 12.8193C23.8867 12.8193 23.1935 13.5126 23.1935 14.3677C23.1935 15.2229 23.8867 15.9161 24.7419 15.9161Z" stroke="white" stroke-miterlimit="10"/>
<path d="M22.8581 7.65805C23.7132 7.65805 24.4065 6.96482 24.4065 6.10967C24.4065 5.25452 23.7132 4.56128 22.8581 4.56128C22.0029 4.56128 21.3097 5.25452 21.3097 6.10967C21.3097 6.96482 22.0029 7.65805 22.8581 7.65805Z" stroke="white" stroke-miterlimit="10"/>
<path d="M4.07098 11.6323H8.38066" stroke="white" stroke-miterlimit="10"/>
<path d="M4.35486 18.3419V15.8903L5.87744 14.3677H8.35486" stroke="white" stroke-miterlimit="10"/>
<path d="M2.54839 13.2064C3.40354 13.2064 4.09677 12.5132 4.09677 11.658C4.09677 10.8029 3.40354 10.1096 2.54839 10.1096C1.69324 10.1096 1 10.8029 1 11.658C1 12.5132 1.69324 13.2064 2.54839 13.2064Z" stroke="white" stroke-miterlimit="10"/>
<path d="M4.35484 21.4387C5.21 21.4387 5.90323 20.7455 5.90323 19.8903C5.90323 19.0352 5.21 18.3419 4.35484 18.3419C3.49969 18.3419 2.80646 19.0352 2.80646 19.8903C2.80646 20.7455 3.49969 21.4387 4.35484 21.4387Z" stroke="white" stroke-miterlimit="10"/>
<path d="M13.5936 4.09677C14.4487 4.09677 15.1419 3.40354 15.1419 2.54839C15.1419 1.69324 14.4487 1 13.5936 1C12.7384 1 12.0452 1.69324 12.0452 2.54839C12.0452 3.40354 12.7384 4.09677 13.5936 4.09677Z" stroke="white" stroke-miterlimit="10"/>
</svg>
