<svg width="488" height="488" viewBox="0 0 488 488" fill="none" xmlns="http://www.w3.org/2000/svg">
<mask id="mask0_95_13650" style="mask-type:alpha" maskUnits="userSpaceOnUse" x="0" y="0" width="488" height="488">
<circle cx="244" cy="244" r="244" fill="url(#paint0_radial_95_13650)"/>
</mask>
<g mask="url(#mask0_95_13650)">
<rect opacity="0.1" x="-48.5678" y="-38.5678" width="96.4368" height="96.4368" rx="29.122" stroke="#F8F8F8" stroke-width="2.86446"/>
<rect opacity="0.1" x="-48.5678" y="68.372" width="96.4368" height="96.4368" rx="29.122" stroke="#F8F8F8" stroke-width="2.86446"/>
<rect opacity="0.1" x="-48.5678" y="175.312" width="96.4368" height="96.4368" rx="29.122" stroke="#F8F8F8" stroke-width="2.86446"/>
<rect opacity="0.1" x="-48.5678" y="282.252" width="96.4368" height="96.4368" rx="29.122" stroke="#F8F8F8" stroke-width="2.86446"/>
<rect opacity="0.1" x="-48.5678" y="389.191" width="96.4368" height="96.4368" rx="29.122" stroke="#F8F8F8" stroke-width="2.86446"/>
<rect opacity="0.1" x="58.3719" y="-38.5678" width="96.4368" height="96.4368" rx="29.122" stroke="#F8F8F8" stroke-width="2.86446"/>
<path opacity="0.1" d="M58.3719 97.494C58.3719 81.4104 71.4103 68.372 87.4939 68.372H125.687C141.77 68.372 154.809 81.4103 154.809 97.494V349.566C154.809 365.65 141.77 378.688 125.687 378.688H87.4939C71.4103 378.688 58.3719 365.65 58.3719 349.566V97.494Z" stroke="#F8F8F8" stroke-width="2.86446"/>
<rect opacity="0.1" x="58.3719" y="389.191" width="96.4368" height="96.4368" rx="29.122" stroke="#F8F8F8" stroke-width="2.86446"/>
<rect opacity="0.1" x="165.312" y="-38.5678" width="96.4368" height="96.4368" rx="29.122" stroke="#F8F8F8" stroke-width="2.86446"/>
<rect opacity="0.1" x="165.312" y="68.372" width="96.4368" height="96.4368" rx="29.122" stroke="#F8F8F8" stroke-width="2.86446"/>
<path opacity="0.1" d="M165.312 311.374C165.312 295.29 178.35 282.252 194.434 282.252H339.566C355.65 282.252 368.688 295.29 368.688 311.373V456.506C368.688 472.59 355.65 485.628 339.566 485.628H194.434C178.35 485.628 165.312 472.59 165.312 456.506V311.374Z" stroke="#F8F8F8" stroke-width="2.86446"/>
<path opacity="0.1" d="M272.252 -9.44575C272.252 -25.5294 285.29 -38.5678 301.374 -38.5678H339.566C355.65 -38.5678 368.688 -25.5294 368.688 -9.44579V135.687C368.688 151.77 355.65 164.809 339.566 164.809H301.374C285.29 164.809 272.252 151.77 272.252 135.687V-9.44575Z" stroke="#F8F8F8" stroke-width="2.86446"/>
<rect opacity="0.1" x="379.191" y="-38.5678" width="96.4368" height="96.4368" rx="29.122" stroke="#F8F8F8" stroke-width="2.86446"/>
<rect opacity="0.1" x="379.191" y="68.372" width="96.4368" height="96.4368" rx="29.122" stroke="#F8F8F8" stroke-width="2.86446"/>
<path opacity="0.1" d="M272.252 204.434C272.252 188.35 285.29 175.312 301.374 175.312H446.506C462.59 175.312 475.628 188.35 475.628 204.434V242.627C475.628 258.71 462.59 271.748 446.506 271.748H301.374C285.29 271.748 272.252 258.71 272.252 242.627V204.434Z" stroke="#F8F8F8" stroke-width="2.86446"/>
<path opacity="0.1" d="M379.191 311.374C379.191 295.29 392.229 282.252 408.313 282.252H446.506C462.589 282.252 475.628 295.29 475.628 311.373V456.506C475.628 472.59 462.589 485.628 446.506 485.628H408.313C392.229 485.628 379.191 472.59 379.191 456.506V311.374Z" stroke="#F8F8F8" stroke-width="2.86446"/>
<rect opacity="0.1" x="486.131" y="-38.5678" width="96.4368" height="96.4368" rx="29.122" stroke="#F8F8F8" stroke-width="2.86446"/>
<rect opacity="0.1" x="486.131" y="68.372" width="96.4368" height="96.4368" rx="29.122" stroke="#F8F8F8" stroke-width="2.86446"/>
<rect opacity="0.1" x="486.131" y="175.312" width="96.4368" height="96.4368" rx="29.122" stroke="#F8F8F8" stroke-width="2.86446"/>
<rect opacity="0.1" x="486.131" y="282.252" width="96.4368" height="96.4368" rx="29.122" stroke="#F8F8F8" stroke-width="2.86446"/>
<rect opacity="0.1" x="486.131" y="389.191" width="96.4368" height="96.4368" rx="29.122" stroke="#F8F8F8" stroke-width="2.86446"/>
<mask id="mask1_95_13650" style="mask-type:alpha" maskUnits="userSpaceOnUse" x="56" y="-40" width="422" height="528">
<path d="M58.3719 97.494C58.3719 81.4104 71.4103 68.372 87.4939 68.372H125.687C141.77 68.372 154.809 81.4103 154.809 97.494V349.566C154.809 365.65 141.77 378.688 125.687 378.688H87.4939C71.4103 378.688 58.3719 365.65 58.3719 349.566V97.494ZM58.3719 418.313C58.3719 402.23 71.4103 389.191 87.4939 389.191H125.687C141.77 389.191 154.809 402.23 154.809 418.313V456.506C154.809 472.59 141.77 485.628 125.687 485.628H87.4939C71.4103 485.628 58.3719 472.59 58.3719 456.506V418.313ZM165.312 97.494C165.312 81.4103 178.35 68.372 194.434 68.372H232.626C248.71 68.372 261.748 81.4103 261.748 97.494V135.687C261.748 151.77 248.71 164.809 232.626 164.809H194.434C178.35 164.809 165.312 151.77 165.312 135.687V97.494ZM165.312 311.373C165.312 295.29 178.35 282.251 194.434 282.251H339.566C355.65 282.251 368.688 295.29 368.688 311.373V456.506C368.688 472.59 355.65 485.628 339.566 485.628H194.434C178.35 485.628 165.312 472.59 165.312 456.506V311.373ZM272.251 -9.44579C272.251 -25.5294 285.29 -38.5678 301.373 -38.5678H339.566C355.65 -38.5678 368.688 -25.5294 368.688 -9.44578V135.687C368.688 151.77 355.65 164.809 339.566 164.809H301.373C285.29 164.809 272.251 151.77 272.251 135.687V-9.44579ZM272.251 204.434C272.251 188.35 285.29 175.312 301.373 175.312H446.506C462.59 175.312 475.628 188.35 475.628 204.434V242.626C475.628 258.71 462.59 271.749 446.506 271.749H301.373C285.29 271.749 272.251 258.71 272.251 242.626V204.434Z" stroke="#F8F8F8" stroke-width="2.86446"/>
</mask>
<g mask="url(#mask1_95_13650)">
<g opacity="0.25" filter="url(#filter0_f_95_13650)">
<circle cx="221.168" cy="278.91" r="171.867" fill="#F8F8F8"/>
</g>
</g>
</g>
<g filter="url(#filter1_di_95_13650)">
<g clip-path="url(#clip0_95_13650)">
<rect opacity="0.4" x="165.312" y="175.312" width="96.4368" height="96.4368" rx="29.122" stroke="#F8F8F8" stroke-width="2.86446"/>
<path d="M181.775 211.791C181.775 211.595 181.927 211.441 182.119 211.441H190.516C191.853 211.441 193.091 211.619 194.224 211.974C195.357 212.33 196.332 212.91 197.149 213.715C197.967 214.521 198.609 215.569 199.071 216.854C199.538 218.139 199.765 219.726 199.765 221.616V225.062C199.765 226.928 199.532 228.503 199.071 229.788C198.603 231.073 197.967 232.128 197.149 232.945C196.332 233.762 195.357 234.348 194.224 234.704C193.091 235.059 191.853 235.237 190.516 235.237H182.119C181.927 235.237 181.775 235.083 181.775 234.887V211.785V211.791ZM192.303 230.09C192.77 229.824 193.138 229.457 193.407 228.989C193.681 228.515 193.868 227.946 193.967 227.283C194.066 226.614 194.119 225.88 194.119 225.074V221.628C194.119 220.822 194.066 220.088 193.967 219.419C193.868 218.749 193.675 218.181 193.407 217.713C193.138 217.245 192.764 216.872 192.303 216.611C191.836 216.345 191.24 216.215 190.516 216.215H187.766C187.573 216.215 187.421 216.369 187.421 216.564V230.15C187.421 230.345 187.573 230.499 187.766 230.499H190.516C191.24 230.499 191.836 230.369 192.303 230.102V230.09Z" fill="white"/>
<path d="M217.826 216.203H209.33C209.137 216.203 208.985 216.357 208.985 216.552V220.751C208.985 220.946 209.137 221.1 209.33 221.1H216.804C216.997 221.1 217.149 221.254 217.149 221.45V225.512C217.149 225.708 216.997 225.862 216.804 225.862H209.33C209.137 225.862 208.985 226.016 208.985 226.211V234.893C208.985 235.089 208.834 235.243 208.641 235.243H203.683C203.491 235.243 203.339 235.089 203.339 234.893V211.791C203.339 211.595 203.491 211.441 203.683 211.441H217.826C218.019 211.441 218.17 211.595 218.17 211.791V215.853C218.17 216.049 218.019 216.203 217.826 216.203Z" fill="white"/>
<path d="M239.023 211.441H243.741C243.933 211.441 244.085 211.595 244.085 211.791V234.893C244.085 235.089 243.933 235.243 243.741 235.243H239.122C238.929 235.243 238.777 235.089 238.777 234.893V223.232C238.777 222.865 238.293 222.747 238.129 223.073L234.048 231.121C233.989 231.239 233.873 231.31 233.744 231.31H231.14C231.011 231.31 230.889 231.239 230.83 231.121L226.848 223.191C226.685 222.865 226.194 222.984 226.194 223.351V234.893C226.194 235.089 226.042 235.243 225.85 235.243H221.231C221.038 235.243 220.886 235.089 220.886 234.893V211.791C220.886 211.595 221.038 211.441 221.231 211.441H225.92C226.048 211.441 226.165 211.512 226.223 211.625L232.179 222.936C232.308 223.185 232.658 223.185 232.786 222.936L238.713 211.625C238.772 211.512 238.888 211.441 239.017 211.441H239.023Z" fill="white"/>
</g>
</g>
<path d="M248.084 246.183C247.896 246.116 247.705 246.047 247.545 246.006C247.392 245.966 247.097 245.9 246.781 246.01C246.419 246.135 246.135 246.42 246.009 246.782C245.9 247.098 245.966 247.392 246.005 247.545C246.047 247.706 246.116 247.896 246.183 248.084L250.957 261.383C251.041 261.617 251.121 261.841 251.201 262.013C251.268 262.159 251.42 262.478 251.751 262.658C252.114 262.855 252.55 262.861 252.917 262.674C253.253 262.502 253.414 262.187 253.485 262.043C253.569 261.873 253.655 261.651 253.745 261.42L255.894 255.894L261.42 253.745C261.651 253.655 261.873 253.569 262.043 253.485C262.187 253.414 262.502 253.253 262.673 252.918C262.861 252.55 262.855 252.114 262.658 251.752C262.478 251.42 262.159 251.268 262.013 251.201C261.841 251.122 261.617 251.041 261.383 250.957L248.084 246.183Z" fill="#121212" stroke="#F8F8F8" stroke-width="1.5" stroke-linecap="round" stroke-linejoin="round"/>
<defs>
<filter id="filter0_f_95_13650" x="-27.0845" y="30.6566" width="496.506" height="496.506" filterUnits="userSpaceOnUse" color-interpolation-filters="sRGB">
<feFlood flood-opacity="0" result="BackgroundImageFix"/>
<feBlend mode="normal" in="SourceGraphic" in2="BackgroundImageFix" result="shape"/>
<feGaussianBlur stdDeviation="38.1928" result="effect1_foregroundBlur_95_13650"/>
</filter>
<filter id="filter1_di_95_13650" x="148.602" y="173.88" width="129.855" height="175.687" filterUnits="userSpaceOnUse" color-interpolation-filters="sRGB">
<feFlood flood-opacity="0" result="BackgroundImageFix"/>
<feColorMatrix in="SourceAlpha" type="matrix" values="0 0 0 0 0 0 0 0 0 0 0 0 0 0 0 0 0 0 127 0" result="hardAlpha"/>
<feMorphology radius="30.5542" operator="erode" in="SourceAlpha" result="effect1_dropShadow_95_13650"/>
<feOffset dy="61.1084"/>
<feGaussianBlur stdDeviation="22.9157"/>
<feComposite in2="hardAlpha" operator="out"/>
<feColorMatrix type="matrix" values="0 0 0 0 0 0 0 0 0 0 0 0 0 0 0 0 0 0 0.4 0"/>
<feBlend mode="multiply" in2="BackgroundImageFix" result="effect1_dropShadow_95_13650"/>
<feBlend mode="normal" in="SourceGraphic" in2="effect1_dropShadow_95_13650" result="shape"/>
<feColorMatrix in="SourceAlpha" type="matrix" values="0 0 0 0 0 0 0 0 0 0 0 0 0 0 0 0 0 0 127 0" result="hardAlpha"/>
<feOffset/>
<feGaussianBlur stdDeviation="7.63855"/>
<feComposite in2="hardAlpha" operator="arithmetic" k2="-1" k3="1"/>
<feColorMatrix type="matrix" values="0 0 0 0 0.972549 0 0 0 0 0.972549 0 0 0 0 0.972549 0 0 0 0.25 0"/>
<feBlend mode="normal" in2="shape" result="effect2_innerShadow_95_13650"/>
</filter>
<radialGradient id="paint0_radial_95_13650" cx="0" cy="0" r="1" gradientUnits="userSpaceOnUse" gradientTransform="translate(244 244) rotate(90) scale(244)">
<stop stop-color="#D9D9D9"/>
<stop offset="1" stop-color="#737373" stop-opacity="0"/>
</radialGradient>
<clipPath id="clip0_95_13650">
<rect x="163.879" y="173.88" width="99.3012" height="99.3012" rx="30.5542" fill="white"/>
</clipPath>
</defs>
</svg>
