<svg width="48" height="38" viewBox="0 0 48 38" fill="none" xmlns="http://www.w3.org/2000/svg">
<path d="M45.982 4.61573C45.2583 4.9367 44.5143 5.2076 43.7541 5.42753C44.6541 4.40962 45.3404 3.21191 45.7593 1.90126C45.8532 1.60747 45.7558 1.2859 45.5144 1.09376C45.2732 0.901477 44.9381 0.878444 44.6726 1.03581C43.058 1.99339 41.3161 2.68155 39.4897 3.08396C37.6499 1.2862 35.151 0.263092 32.5678 0.263092C27.1149 0.263092 22.6786 4.69924 22.6786 10.152C22.6786 10.5814 22.7058 11.0085 22.7596 11.4296C15.9931 10.8355 9.70242 7.50971 5.38262 2.21079C5.22867 2.02192 4.9915 1.92013 4.74869 1.93959C4.50573 1.95862 4.28744 2.09562 4.1647 2.30619C3.28855 3.80957 2.82537 5.52902 2.82537 7.27849C2.82537 9.66128 3.6761 11.9221 5.17889 13.6886C4.72194 13.5304 4.27852 13.3326 3.85531 13.0977C3.6281 12.9712 3.35081 12.9731 3.12509 13.1026C2.89922 13.232 2.7576 13.47 2.75166 13.7302C2.75062 13.7741 2.75062 13.8179 2.75062 13.8623C2.75062 17.4191 4.66488 20.6213 7.59156 22.3666C7.34012 22.3415 7.08884 22.305 6.83919 22.2573C6.58182 22.2082 6.31716 22.2984 6.1436 22.4947C5.96974 22.6908 5.91223 22.9642 5.99232 23.2139C7.07562 26.596 9.86469 29.0837 13.2364 29.8422C10.4399 31.5937 7.2419 32.5112 3.88473 32.5112C3.18423 32.5112 2.47972 32.47 1.79022 32.3884C1.4477 32.3477 1.12018 32.55 1.00353 32.8757C0.886881 33.2016 1.01052 33.5649 1.30192 33.7517C5.61473 36.517 10.6016 37.9786 15.7231 37.9786C25.7913 37.9786 32.0897 33.2308 35.6004 29.2479C39.9781 24.2816 42.4889 17.708 42.4889 11.2128C42.4889 10.9415 42.4847 10.6675 42.4764 10.3943C44.2036 9.09304 45.6906 7.51818 46.9007 5.70808C47.0845 5.43318 47.0646 5.06985 46.8516 4.81678C46.639 4.56357 46.2846 4.48169 45.982 4.61573Z" fill="url(#paint0_linear_100_593)"/>
<defs>
<linearGradient id="paint0_linear_100_593" x1="23.993" y1="0.263092" x2="23.993" y2="37.9786" gradientUnits="userSpaceOnUse">
<stop stop-color="#F8F8F8" stop-opacity="0.9"/>
<stop offset="1" stop-color="#F8F8F8" stop-opacity="0.3"/>
</linearGradient>
</defs>
</svg>
